# xmcd
#
# Track frame offsets: 
#        150
#        15262
#        30107
#        46682
#        60432
#        72876
#        88484
#        105101
#        116917
#        135712
#        150605
#        162350
#        174841
#
# Disc length: 2518 seconds
#
# Revision: 0
# Processed by: cddbd v1.5.2PL0 Copyright (c) Steve Scherf et al.
# Submitted via: ExactAudioCopy v1.0b4
#
DISCID=9109d40d
DTITLE=Nico Duportal And His Rhythm Dudes - Dealing With My Blues
DYEAR=2016
DGENRE=Blues
TTITLE0=Don't You See
TTITLE1=I Know The Rules
TTITLE2=Now Hush
TTITLE3=The One To Blame
TTITLE4=I Will Unfriend You
TTITLE5=Mess And Chaos
TTITLE6=Benzola Ascensor
TTITLE7=Sometimes
TTITLE8=Brand New Day
TTITLE9=Junior's Mambo
TTITLE10=Soul Patch
TTITLE11=Long Way To Go
TTITLE12=Mess And Chaos (Acoustic Bonus Track)
EXTD=
EXTT0=
EXTT1=
EXTT2=
EXTT3=
EXTT4=
EXTT5=
EXTT6=
EXTT7=
EXTT8=
EXTT9=
EXTT10=
EXTT11=
EXTT12=
PLAYORDER=
